<?xml version="1.0" encoding="UTF-8" standalone="no"?>
<svg
   version="1.0"
   width="559.000000pt"
   height="646.000000pt"
   viewBox="0 0 559.000000 646.000000"
   preserveAspectRatio="xMidYMid meet"
   id="svg3"
   sodipodi:docname="owl_no_mouth.svg"
   inkscape:version="1.3.2 (091e20ef0f, 2023-11-25, custom)"
   xmlns:inkscape="http://www.inkscape.org/namespaces/inkscape"
   xmlns:sodipodi="http://sodipodi.sourceforge.net/DTD/sodipodi-0.dtd"
   xmlns="http://www.w3.org/2000/svg"
   xmlns:svg="http://www.w3.org/2000/svg">
  <defs
     id="defs3" />
  <sodipodi:namedview
     id="namedview3"
     pagecolor="#848484"
     bordercolor="#c79595"
     borderopacity="0.26666667"
     inkscape:showpageshadow="2"
     inkscape:pageopacity="0.0"
     inkscape:pagecheckerboard="0"
     inkscape:deskcolor="#606060"
     inkscape:document-units="pt"
     inkscape:zoom="0.72380899"
     inkscape:cx="455.92139"
     inkscape:cy="270.78967"
     inkscape:window-width="1920"
     inkscape:window-height="1048"
     inkscape:window-x="0"
     inkscape:window-y="32"
     inkscape:window-maximized="1"
     inkscape:current-layer="svg3" />
  <g
     transform="translate(0.000000,646.000000) scale(0.100000,-0.100000)"
     fill="#ffffff"
     stroke="none"
     id="g3">
    <path
       d="m 543,6335 c -48,-34 -10,-124 86,-205 51,-43 63,-66 37,-76 -7,-3 -68,13 -136,36 -67,22 -146,43 -175,46 -45,6 -56,3 -74,-15 -11,-11 -21,-31 -21,-43 0,-51 114,-182 224,-257 62,-43 163,-92 297,-144 304,-119 393,-186 741,-558 175,-188 341,-312 543,-405 39,-18 79,-42 89,-53 28,-31 36,-84 21,-155 -49,-231 -270,-383 -506,-345 -240,38 -409,268 -372,508 12,79 48,165 94,222 l 31,39 -35,43 c -71,86 -204,213 -266,255 -136,91 -304,108 -434,43 -169,-82 -324,-326 -402,-630 -64,-253 -111,-757 -94,-1023 10,-161 22,-226 43,-234 7,-3 37,11 66,31 88,59 113,33 61,-64 -55,-104 -76,-199 -76,-353 0,-115 3,-140 17,-154 9,-9 21,-13 27,-10 6,4 36,46 67,93 91,137 203,233 272,233 39,0 35,-26 -16,-96 -108,-149 -163,-277 -192,-451 -33,-191 -21,-394 29,-507 17,-39 25,-47 43,-44 20,3 28,19 58,109 46,139 105,230 173,266 52,27 72,0 42,-57 -29,-55 -65,-215 -75,-327 -24,-272 50,-576 172,-709 33,-36 43,-42 59,-33 17,8 19,22 19,112 0,116 24,223 67,297 28,47 75,100 90,100 5,0 9,-80 9,-177 -1,-154 2,-190 22,-262 46,-173 140,-354 240,-462 64,-69 76,-76 100,-60 11,6 10,24 -3,95 -16,87 -15,120 7,221 19,89 89,198 116,181 5,-3 12,-49 15,-103 9,-132 39,-247 97,-369 66,-140 118,-214 222,-316 127,-126 170,-131 143,-17 -31,134 -10,305 48,381 18,23 37,43 43,45 7,2 15,-29 23,-86 30,-238 148,-461 347,-658 89,-89 194,-163 229,-163 33,0 134,69 219,150 196,186 326,430 357,667 6,51 15,93 20,93 19,0 71,-81 89,-139 25,-78 26,-200 4,-288 -12,-50 -13,-67 -4,-78 10,-13 16,-13 39,0 57,29 141,107 200,185 143,190 216,380 228,597 4,74 10,103 19,103 21,0 73,-71 95,-130 26,-68 37,-223 20,-299 -11,-53 -4,-81 20,-81 39,0 184,187 246,317 82,171 121,412 94,573 -6,37 -7,68 -2,73 14,14 85,-57 114,-115 40,-80 60,-187 53,-284 -6,-65 -4,-83 8,-93 36,-30 89,29 157,174 61,130 81,217 86,386 6,171 -10,298 -57,437 -16,49 -30,97 -30,105 0,43 52,23 116,-45 49,-50 81,-111 119,-226 15,-46 34,-86 43,-89 51,-20 95,137 95,342 -1,257 -59,446 -197,638 -60,83 -70,117 -36,117 66,0 198,-109 276,-227 32,-48 63,-91 69,-95 36,-25 59,102 44,242 -12,108 -32,177 -77,268 -33,65 -35,74 -21,87 19,20 61,6 101,-32 55,-52 72,-13 90,206 19,238 -9,628 -67,912 -76,373 -245,670 -432,757 -51,23 -70,27 -158,27 -111,-1 -171,-18 -261,-78 -51,-33 -304,-274 -304,-288 0,-5 16,-32 37,-60 104,-145 111,-330 20,-502 -80,-151 -281,-246 -460,-217 -185,29 -348,200 -363,381 -8,94 9,116 139,177 193,91 333,195 507,377 395,414 437,445 785,589 88,37 190,84 227,107 127,75 258,219 258,282 0,26 -30,67 -49,67 -24,0 -156,-32 -245,-59 -54,-17 -102,-31 -107,-31 -20,0 -6,26 47,83 72,77 94,114 94,154 0,31 -21,63 -42,63 -48,0 -235,-64 -343,-118 -167,-82 -403,-241 -511,-344 l -32,-30 -63,47 c -166,122 -480,236 -814,296 -150,27 -544,38 -717,20 -431,-44 -827,-179 -1074,-365 -8,-7 -37,12 -95,63 -154,137 -255,205 -433,294 -225,112 -352,151 -393,122 z m 2122,-389 c 42,-18 60,-48 45,-76 -15,-28 -42,-40 -93,-40 -83,0 -146,70 -102,114 21,20 103,21 150,2 z m 414,-12 c 26,-33 16,-62 -32,-87 -70,-36 -177,-17 -177,32 0,55 42,80 132,81 49,0 59,-3 77,-26 z m -715,-123 c 75,-70 -34,-140 -149,-96 -66,25 -83,67 -44,106 18,18 30,21 94,17 61,-3 78,-7 99,-27 z m 1054,13 c 72,-50 -43,-141 -150,-119 -87,19 -91,91 -8,124 40,16 133,13 158,-5 z M 1953,5681 c 80,-19 113,-89 57,-119 -39,-20 -139,-11 -178,17 -45,32 -45,76 1,96 37,17 67,18 120,6 z m 1807,-4 c 48,-24 34,-88 -25,-113 -46,-19 -135,-18 -163,2 -28,20 -28,55 1,81 41,39 139,54 187,30 z m -1123,-37 c 45,-20 70,-57 59,-85 -7,-20 -66,-45 -103,-45 -42,1 -112,36 -122,62 -17,42 32,88 94,88 17,0 49,-9 72,-20 z m 464,-6 c 63,-57 -52,-143 -160,-119 -42,9 -65,44 -52,78 22,58 163,85 212,41 z m -848,-203 c 47,-11 89,-48 85,-75 -9,-60 -145,-84 -220,-38 -108,67 -12,147 135,113 z m 1222,-5 c 29,-12 35,-20 35,-45 0,-78 -171,-121 -236,-60 -13,12 -24,33 -24,46 0,55 143,93 225,59 z m -808,-146 c 58,-35 64,-83 13,-110 -24,-13 -111,-13 -144,0 -63,23 -86,85 -44,114 33,23 134,21 175,-4 z m 433,0 c 26,-26 25,-52 -2,-78 -33,-30 -71,-42 -134,-42 -55,0 -94,22 -94,53 0,22 31,57 63,71 51,23 143,20 167,-4 z M 2864,4178 c 60,-18 152,-114 198,-208 88,-183 89,-374 1,-594 -55,-138 -170,-330 -236,-394 l -34,-33 -40,44 c -70,75 -173,245 -223,367 -59,142 -76,327 -45,473 40,190 182,356 304,357 18,0 52,-5 75,-12 z M 1264,2503 c 30,-267 189,-533 398,-667 42,-27 50,-14 43,68 -13,134 31,273 115,369 23,26 45,47 49,47 4,0 6,-58 3,-130 -5,-148 5,-219 49,-329 54,-137 174,-290 283,-366 73,-50 85,-44 79,38 -7,79 20,178 68,250 49,74 59,65 59,-57 0,-178 40,-324 131,-487 57,-100 63,-143 24,-161 -20,-9 -37,-7 -92,11 -148,49 -336,172 -458,302 -69,73 -81,88 -164,202 -46,62 -62,64 -76,9 -9,-35 -33,-62 -57,-62 -72,0 -283,167 -391,310 -142,188 -197,423 -141,610 14,47 48,100 64,100 4,0 11,-26 14,-57 z m 3142,-51 c 22,-73 21,-206 -1,-297 -56,-234 -254,-478 -482,-594 -71,-36 -91,-28 -116,44 -8,22 -18,40 -24,42 -6,2 -37,-36 -69,-84 -133,-202 -344,-373 -569,-464 -89,-35 -119,-37 -139,-6 -20,29 -13,49 47,159 98,177 129,288 130,466 0,61 4,112 8,112 14,0 50,-43 71,-84 29,-57 51,-172 43,-233 -8,-63 0,-66 66,-25 136,87 281,292 330,467 24,84 32,238 16,323 -9,50 2,54 40,15 47,-51 91,-129 114,-203 19,-62 21,-87 16,-166 -6,-91 -6,-94 14,-94 12,0 50,20 84,45 157,111 294,347 330,567 9,51 18,100 21,108 9,25 52,-34 70,-98 z"
       id="path1"
       sodipodi:nodetypes="cccccssccccccccccccccccccssccsccccccccccscscccccccccccccccsccsccccccsccsccsscscccscccccscccccccccccsccccccccsscscsscccccccccccssccccsccccscccccccccccscscsccccsccccccccccscsccccccscsscsccccccccccccccscccccsccccccsccscccccscccccsccccccccscccc" />
    <path
       d="M1511 4724 c-17 -14 -36 -42 -42 -63 -37 -125 143 -210 211 -99 35 57 20 136 -32 172 -36 25 -101 20 -137 -10z"
       id="path2" />
    <path
       d="M3948 4734 c-57 -30 -76 -119 -37 -168 26 -33 69 -56 106 -56 34 0 82 30 99 62 28 50 9 129 -38 162 -28 20 -94 20 -130 0z"
       id="path3" />
  </g>
</svg>
